<svg xmlns="http://www.w3.org/2000/svg" viewBox="0 0 32 32" width="32" height="32" role="img" aria-label="smoo.casa">
  <rect width="32" height="32" rx="7" fill="#EDF1E6"/>
  <g transform="translate(16 16.7) rotate(-8) scale(0.82) translate(-13.7 -16.3)">
    <path d="M5.5 7 L22.5 7 L20.3 29 Q19.9 31.4 17.6 31.4 L10.4 31.4 Q8.1 31.4 7.7 29 Z" fill="#FBFDF7"/>
    <path d="M6.1 12 L21.9 12 L20.3 29 Q19.9 31.4 17.6 31.4 L10.4 31.4 Q8.1 31.4 7.7 29 Z" fill="#2F7D4F"/>
    <ellipse cx="14" cy="12" rx="7.6" ry="1.3" fill="#5AA876"/>
    <circle cx="11" cy="18.5" r="1.1" fill="#ffffff" opacity="0.34"/>
    <circle cx="13.6" cy="23" r="0.8" fill="#ffffff" opacity="0.34"/>
    <path d="M5.5 7 L22.5 7 L20.3 29 Q19.9 31.4 17.6 31.4 L10.4 31.4 Q8.1 31.4 7.7 29 Z" fill="none" stroke="#235E3B" stroke-width="1.6" stroke-linejoin="round"/>
    <path d="M14.8 16 L19.8 2.6" fill="none" stroke="#B5543C" stroke-width="2.4" stroke-linecap="round"/>
    <path d="M8.7 6.5 Q4.8 5.0 5.7 1.3 Q9.6 2.8 8.7 6.5 Z" fill="#235E3B"/>
  </g>
</svg>
